:FULLY-SPECIFIED
:FORCE-ALL-JOINTS-BE-3DOF
:DEGREES
476
root 3.63302 16.1139 -7.07235 2.56472 58.7502 -9.2542
lfemur -40.1025 -1.55777 -15.8328
ltibia 51.8429 -0 0
lfoot -21.0661 -3.91739 0.0206466
ltoes 12.4286 -0 0
rfemur -35.7759 -1.44285 12.7131
rtibia 63.2555 -0 0
rfoot 5.09952 -3.06627 0.99743
rtoes -28.9967 0 0
lowerback 4.0802 0.0578156 1.71457
upperback 0.206368 0.181349 1.11725
thorax -2.01199 0.0856814 0.18847
lowerneck -8.17617 -6.18002 0.756396
upperneck 4.13778 -8.40037 1.28048
head 2.85944 -4.1278 -0.203827
lclavicle -2.53602e-14 -4.09538e-15 4.21385e-31
lhumerus -46.0129 -29.0957 108.963
lradius 54.8574 -0 0
lwrist 3.63904 0 0
lhand -7.05499 -3.0546 0.671021
lfingers 7.12502 -0 0
lthumb 18.7628 25.297 0.471115
rclavicle -2.53602e-14 -4.09538e-15 4.21385e-31
rhumerus -46.9843 13.9115 -92.5828
rradius 72.5604 -0 0
rwrist 20.3818 0 0
rhand -18.025 -21.8496 0.102338
rfingers 7.12502 -0 0
rthumb 8.24251 -51.5496 0.111858
477
root 3.74832 16.1499 -6.99226 2.56605 60.7668 -8.84125
lfemur -39.0754 -2.9916 -16.4143
ltibia 51.198 -0 0
lfoot -21.2083 -4.00541 0.0197495
ltoes 13.0231 -0 0
rfemur -37.4589 -0.995293 12.6141
rtibia 64.9135 -0 0
rfoot 5.80545 -2.2062 0.953856
rtoes -27.7423 0 0
lowerback 4.09731 0.00267496 1.44386
upperback 0.190644 0.0949387 1.06913
thorax -2.04155 0.0444082 0.295001
lowerneck -8.22815 -6.42629 0.5743
upperneck 4.35405 -8.71892 1.33198
head 2.95079 -4.28341 -0.177572
lclavicle -2.44293e-14 -4.3699e-15 4.0308e-31
lhumerus -46.2752 -29.35 109.412
lradius 54.9445 -0 0
lwrist 3.64393 0 0
lhand -5.85173 -2.71485 0.641662
lfingers 7.12502 -0 0
lthumb 19.9201 25.5449 0.450518
rclavicle -2.44293e-14 -4.3699e-15 4.0308e-31
rhumerus -46.9088 14.8187 -92.9463
rradius 72.9668 -0 0
rwrist 20.9088 0 0
rhand -17.4998 -21.7313 0.0978863
rfingers 7.12502 -0 0
rthumb 8.74941 -51.4156 0.106992
478
root 3.86105 16.185 -6.91394 2.5981 62.7384 -8.41037
lfemur -38.0555 -4.38314 -17.0086
ltibia 50.5674 -0 0
lfoot -21.3475 -4.09147 0.0186611
ltoes 13.6044 -0 0
rfemur -39.105 -0.560702 12.5046
rtibia 66.5346 -0 0
rfoot 6.49493 -1.36587 0.901016
rtoes -26.5159 0 0
lowerback 4.1143 -0.0511586 1.17916
upperback 0.17534 0.0104398 1.0221
thorax -2.07052 0.00410744 0.39918
lowerneck -8.27824 -6.66724 0.396392
upperneck 4.5654 -9.03057 1.3812
head 3.04004 -4.43559 -0.152137
lclavicle -2.35192e-14 -4.63832e-15 3.80871e-31
lhumerus -46.5345 -29.5969 109.852
lradius 55.0297 -0 0
lwrist 3.64872 0 0
lhand -4.67545 -2.38333 0.606067
lfingers 7.12502 -0 0
lthumb 21.0514 25.7869 0.425543
rclavicle -2.35192e-14 -4.63832e-15 3.80871e-31
rhumerus -46.8404 15.7061 -93.3021
rradius 73.3642 -0 0
rwrist 21.4241 0 0
rhand -16.9863 -21.6157 0.0924861
rfingers 7.12502 -0 0
rthumb 9.24502 -51.2847 0.10109
479
root 3.97065 16.2192 -6.83781 2.66467 64.655 -7.95926
lfemur -37.0481 -5.72553 -17.6113
ltibia 49.9543 -0 0
lfoot -21.4827 -4.17513 0.0174026
ltoes 14.1696 -0 0
rfemur -40.7059 -0.141392 12.3862
rtibia 68.1106 -0 0
rfoot 7.16441 -0.549615 0.839963
rtoes -25.3236 0 0
lowerback 4.13105 -0.103409 0.921859
upperback 0.160529 -0.0717188 0.976398
thorax -2.09875 -0.0350208 0.500478
lowerneck -8.32623 -6.90162 0.223557
upperneck 4.77085 -9.3338 1.42799
head 3.12677 -4.58358 -0.127633
lclavicle -2.26343e-14 -4.89926e-15 3.55192e-31
lhumerus -46.7892 -29.8352 110.283
lradius 55.1126 -0 0
lwrist 3.65337 0 0
lhand -3.53215 -2.06181 0.564946
lfingers 7.12502 -0 0
lthumb 22.1512 26.0215 0.39669
rclavicle -2.26343e-14 -4.89926e-15 3.55192e-31
rhumerus -46.7792 16.5692 -93.6484
rradius 73.7505 -0 0
rwrist 21.9251 0 0
rhand -16.4872 -21.5033 0.0862433
rfingers 7.12502 -0 0
rthumb 9.72689 -51.1575 0.0942659
480
root 4.07654 16.2522 -6.76424 2.76976 66.5065 -7.48537
lfemur -36.0588 -7.01219 -18.2176
ltibia 49.362 -0 0
lfoot -21.6133 -4.25596 0.0159992
ltoes 14.7156 -0 0
rfemur -42.2536 0.260435 12.2608
rtibia 69.6332 -0 0
rfoot 7.81032 0.238277 0.77193
rtoes -24.1717 0 0
lowerback 4.14746 -0.153825 0.673219
upperback 0.146281 -0.151108 0.932266
thorax -2.12609 -0.0727772 0.598366
lowerneck -8.37195 -7.1282 0.0566773
upperneck 4.96922 -9.62683 1.47217
head 3.21052 -4.72659 -0.104167
lclavicle -2.17795e-14 -5.15137e-15 3.26555e-31
lhumerus -47.0379 -30.0639 110.701
lradius 55.1927 -0 0
lwrist 3.65787 0 0
lhand -2.42778 -1.75201 0.519131
lfingers 7.12502 -0 0
lthumb 23.2137 26.2477 0.36454
rclavicle -2.17795e-14 -5.15137e-15 3.26555e-31
rhumerus -46.725 17.4034 -93.9836
rradius 74.1238 -0 0
rwrist 22.4091 0 0
rhand -16.0048 -21.3949 0.0792813
rfingers 7.12502 -0 0
rthumb 10.1924 -51.0347 0.0866578
481
root 4.17816 16.2838 -6.69365 2.91747 68.2827 -6.9861
lfemur -35.0938 -8.23682 -18.8221
ltibia 48.7937 -0 0
lfoot -21.7387 -4.33352 0.0144793
ltoes 15.2396 -0 0
rfemur -43.7395 0.642702 12.1303
rtibia 71.0943 -0 0
rfoot 8.42919 0.993548 0.698305
rtoes -23.0663 0 0
lowerback 4.16341 -0.202137 0.434616
upperback 0.132667 -0.227299 0.889937
thorax -2.15239 -0.108964 0.692314
lowerneck -8.41521 -7.34574 -0.103363
upperneck 5.15951 -9.90815 1.51363
head 3.29084 -4.86385 -0.081842
lclavicle -2.09591e-14 -5.39329e-15 2.95539e-31
lhumerus -47.2788 -30.2818 111.105
lradius 55.2695 -0 0
lwrist 3.66219 0 0
lhand -1.36829 -1.45562 0.469564
lfingers 7.12502 -0 0
lthumb 24.233 26.4641 0.329751
rclavicle -2.09591e-14 -5.39329e-15 2.95539e-31
rhumerus -46.6775 18.2042 -94.306
rradius 74.482 -0 0
rwrist 22.8735 0 0
rhand -15.5421 -21.2908 0.0717437
rfingers 7.12502 -0 0
rthumb 10.639 -50.9169 0.0784193
482
root 4.27492 16.314 -6.62642 3.11173 69.9735 -6.45899
lfemur -34.1598 -9.39338 -19.419
ltibia 48.2523 -0 0
lfoot -21.8581 -4.40737 0.0128742
ltoes 15.7385 -0 0
rfemur -45.1555 1.00346 11.9968
rtibia 72.4857 -0 0
rfoot 9.01756 1.71198 0.620622
rtoes -22.0137 0 0
lowerback 4.17878 -0.24808 0.20739
upperback 0.119754 -0.299862 0.849644
thorax -2.17749 -0.143382 0.781793
lowerneck -8.45586 -7.55301 -0.255684
upperneck 5.34069 -10.1762 1.55226
head 3.3673 -4.99459 -0.060758
lclavicle -2.01779e-14 -5.62366e-15 2.62783e-31
lhumerus -47.5104 -30.488 111.491
lradius 55.3426 -0 0
lwrist 3.66629 0 0
lhand -0.359633 -1.17427 0.417276
lfingers 7.12502 -0 0
lthumb 25.2036 26.6696 0.29305
rclavicle -2.01779e-14 -5.62366e-15 2.62783e-31
rhumerus -46.6366 18.967 -94.6137
rradius 74.823 -0 0
rwrist 23.3158 0 0
rhand -15.1015 -21.1918 0.0637851
rfingers 7.12502 -0 0
rthumb 11.0643 -50.8047 0.0697205
483
root 4.36627 16.3424 -6.56295 3.35595 71.569 -5.90217
lfemur -33.2639 -10.4761 -20.0019
ltibia 47.7414 -0 0
lfoot -21.9708 -4.47708 0.0112179
ltoes 16.2095 -0 0
rfemur -46.4932 1.34088 11.8626
rtibia 73.7991 -0 0
rfoot 9.57203 2.38939 0.540532
rtoes -21.02 0 0
lowerback 4.19346 -0.291392 -0.00711742
upperback 0.107612 -0.368368 0.811624
thorax -2.20123 -0.175837 0.866273
lowerneck -8.49373 -7.74877 -0.399401
upperneck 5.51168 -10.4293 1.58797
head 3.43944 -5.11803 -0.0410121
lclavicle -1.94405e-14 -5.84113e-15 2.2898e-31
lhumerus -47.7311 -30.6814 111.857
lradius 55.4117 -0 0
lwrist 3.67017 0 0
lhand 0.592268 -0.90957 0.36338
lfingers 7.12502 -0 0
lthumb 26.1197 26.863 0.255216
rclavicle -1.94405e-14 -5.84113e-15 2.2898e-31
rhumerus -46.6017 19.6872 -94.905
rradius 75.145 -0 0
rwrist 23.7332 0 0
rhand -14.6855 -21.0984 0.0555739
rfingers 7.12502 -0 0
rthumb 11.4658 -50.6989 0.0607457
484
root 4.45163 16.369 -6.50365 3.65231 73.059 -5.31498
lfemur -32.4137 -11.4795 -20.564
ltibia 47.264 -0 0
lfoot -22.0761 -4.54221 0.0095463
ltoes 16.6495 -0 0
rfemur -47.7439 1.65326 11.7301
rtibia 75.0263 -0 0
rfoot 10.0892 3.02164 0.459779
rtoes -20.0915 0 0
lowerback 4.20733 -0.331814 -0.207565
upperback 0.0963075 -0.432388 0.776111
thorax -2.22345 -0.206131 0.945223
lowerneck -8.5287 -7.93177 -0.533635
upperneck 5.67144 -10.6659 1.62067
head 3.50683 -5.2334 -0.022699
lclavicle -1.87515e-14 -6.04434e-15 1.94865e-31
lhumerus -47.9388 -30.861 112.2
lradius 55.4762 -0 0
lwrist 3.6738 0 0
lhand 1.48149 -0.663072 0.309053
lfingers 7.12502 -0 0
lthumb 26.9756 27.0431 0.217073
rclavicle -1.87515e-14 -6.04434e-15 1.94865e-31
rhumerus -46.5725 20.3603 -95.1779
rradius 75.4458 -0 0
rwrist 24.1233 0 0
rhand -14.2969 -21.0112 0.0472888
rfingers 7.12502 -0 0
rthumb 11.841 -50.6001 0.0516859
485
root 4.53042 16.3935 -6.4489 4.00084 74.4335 -4.69899
lfemur -31.6172 -12.3984 -21.0983
ltibia 46.8234 -0 0
lfoot -22.1733 -4.60233 0.00789702
ltoes 17.0558 -0 0
rfemur -48.8994 1.939 11.6018
rtibia 76.1592 -0 0
rfoot 10.5659 3.6046 0.380175
rtoes -19.2344 0 0
lowerback 4.22025 -0.369084 -0.392611
upperback 0.085907 -0.491491 0.743339
thorax -2.24401 -0.234068 1.01811
lowerneck -8.5606 -8.10077 -0.657501
upperneck 5.8189 -10.8844 1.65028
head 3.56901 -5.33991 -0.00591185
lclavicle -1.81154e-14 -6.23192e-15 1.61203e-31
lhumerus -48.1321 -31.0258 112.518
lradius 55.5358 -0 0
lwrist 3.67714 0 0
lhand 2.30214 -0.4363 0.255512
lfingers 7.12502 -0 0
lthumb 27.7655 27.2089 0.179479
rclavicle -1.81154e-14 -6.23192e-15 1.61203e-31
rhumerus -46.5485 20.9818 -95.4307
rradius 75.7235 -0 0
rwrist 24.4836 0 0
rhand -13.938 -20.9307 0.0391126
rfingers 7.12502 -0 0
rthumb 12.1873 -50.509 0.0427531
486
root 4.60209 16.4158 -6.39911 4.39803 75.6825 -4.05931
lfemur -30.8826 -13.2277 -21.5972
ltibia 46.4226 -0 0
lfoot -22.2617 -4.65701 0.00630853
ltoes 17.4254 -0 0
rfemur -49.9509 2.19657 11.48
rtibia 77.1896 -0 0
rfoot 10.9986 4.13419 0.303573
rtoes -18.4549 0 0
lowerback 4.23211 -0.402944 -0.560914
upperback 0.0764775 -0.545249 0.713543
thorax -2.26273 -0.259453 1.08441
lowerneck -8.5893 -8.25453 -0.770117
upperneck 5.95301 -11.0831 1.67673
head 3.62554 -5.4368 0.00925725
lclavicle -1.75369e-14 -6.40252e-15 1.28781e-31
lhumerus -48.3091 -31.1749 112.809
lradius 55.5899 -0 0
lwrist 3.68019 0 0
lhand 3.0483 -0.230742 0.204003
lfingers 7.12502 -0 0
lthumb 28.4839 27.3592 0.143306
rclavicle -1.75369e-14 -6.40252e-15 1.28781e-31
rhumerus -46.5292 21.5472 -95.6612
rradius 75.976 -0 0
rwrist 24.811 0 0
rhand -13.6118 -20.8576 0.0312428
rfingers 7.12502 -0 0
rthumb 12.5021 -50.4262 0.0341509
487
root 4.66605 16.4357 -6.35467 4.83513 76.7962 -3.40634
lfemur -30.2186 -13.9624 -22.0532
ltibia 46.0648 -0 0
lfoot -22.3405 -4.7058 0.00481959
ltoes 17.7551 -0 0
rfemur -50.8901 2.42454 11.3674
rtibia 78.1092 -0 0
rfoot 11.3843 4.60642 0.23182
rtoes -17.7592 0 0
lowerback 4.24278 -0.433135 -0.711131
upperback 0.0680851 -0.593232 0.686957
thorax -2.27947 -0.282091 1.14359
lowerneck -8.61467 -8.39181 -0.870599
upperneck 6.07271 -11.2606 1.69995
head 3.67598 -5.52328 0.0227166
lclavicle -1.70206e-14 -6.55479e-15 9.83886e-32
lhumerus -48.468 -31.3073 113.069
lradius 55.6383 -0 0
lwrist 3.6829 0 0
lhand 3.71409 -0.0478613 0.155775
lfingers 7.12502 -0 0
lthumb 29.125 27.4929 0.109427
rclavicle -1.70206e-14 -6.55479e-15 9.83886e-32
rhumerus -46.5139 22.0517 -95.8676
rradius 76.2014 -0 0
rwrist 25.1033 0 0
rhand -13.3206 -20.7924 0.0238674
rfingers 7.12502 -0 0
rthumb 12.7831 -50.3523 0.0260891
